<?xml version="1.0" encoding="UTF-8" standalone="no"?>
<!-- Generator: Adobe Illustrator 18.0.0, SVG Export Plug-In . SVG Version: 6.00 Build 0)  -->

<svg
   version="1.1"
   id="Capa_1"
   x="0px"
   y="0px"
   viewBox="0 0 459.568 459.568"
   style="enable-background:new 0 0 459.568 459.568;"
   xml:space="preserve"
   sodipodi:docname="money.svg"
   inkscape:version="1.1.2 (1:1.1+202202050950+0a00cf5339)"
   xmlns:inkscape="http://www.inkscape.org/namespaces/inkscape"
   xmlns:sodipodi="http://sodipodi.sourceforge.net/DTD/sodipodi-0.dtd"
   xmlns="http://www.w3.org/2000/svg"
   xmlns:svg="http://www.w3.org/2000/svg"><defs
   id="defs43">
	
	
	
</defs><sodipodi:namedview
   id="namedview41"
   pagecolor="#ffffff"
   bordercolor="#999999"
   borderopacity="1"
   inkscape:pageshadow="0"
   inkscape:pageopacity="0"
   inkscape:pagecheckerboard="0"
   showgrid="false"
   inkscape:zoom="1.401316"
   inkscape:cx="184.11264"
   inkscape:cy="229.42719"
   inkscape:window-width="1920"
   inkscape:window-height="1016"
   inkscape:window-x="0"
   inkscape:window-y="27"
   inkscape:window-maximized="1"
   inkscape:current-layer="Capa_1" />
<g
   id="g1121"><path
     d="m 246.817,335.072 v 22.294 c 6.493,-1.547 9.753,-5.069 9.753,-10.583 0,-6.294 -4.023,-8.986 -9.753,-11.711 z"
     id="path2"
     style="fill:#ffffff" /><path
     d="m 214.638,278.05 c 0,5.329 2.549,8.266 7.179,10.798 v -21.562 c -4.785,2.016 -7.179,5.605 -7.179,10.764 z"
     id="path4"
     style="fill:#ffffff" /><path
     d="m 338.492,240.601 c -23.908,-18.506 -42.082,-42.997 -52.978,-70.59 9.327,-1.696 16.404,-9.844 16.404,-19.66 0,-11.046 -8.954,-20 -20,-20 h -6.649 c -0.002,-0.014 -0.003,-0.029 -0.005,-0.043 10.651,-0.447 19.154,-9.197 19.154,-19.957 0,-10.213 -7.659,-18.621 -17.544,-19.834 2.814,-11.83 7.72,-23.151 14.61,-33.38 l 19.381,-28.771 c 3.759,-5.58 4.132,-12.777 0.972,-18.716 C 308.676,3.711 302.497,0 295.77,0 H 163.799 c -6.727,0 -12.906,3.711 -16.066,9.65 -3.16,5.939 -2.786,13.137 0.972,18.716 l 19.381,28.771 c 6.89,10.229 11.796,21.549 14.61,33.38 -9.885,1.213 -17.544,9.622 -17.544,19.834 0,10.76 8.504,19.511 19.154,19.957 -0.002,0.014 -0.003,0.028 -0.005,0.043 h -6.649 c -11.046,0 -20,8.954 -20,20 0,9.819 7.081,17.968 16.411,19.661 -10.89,27.592 -29.06,52.068 -52.986,70.589 -33.52,25.947 -54.626,63.707 -54.626,105.745 0,35.448 15.012,67.851 39.818,92.695 13.122,13.143 30.933,20.528 49.505,20.528 h 148.031 c 18.577,0 36.393,-7.39 49.516,-20.539 24.794,-24.844 39.797,-57.243 39.797,-92.684 0,-42.039 -21.106,-79.799 -54.626,-105.745 z m -91.675,149.097 v 14.246 c 0,6.904 -5.596,12.5 -12.5,12.5 -6.904,0 -12.5,-5.596 -12.5,-12.5 v -14.77 c -11.288,-1.477 -22.959,-4.491 -33.823,-9.161 -4.434,-1.906 -7.882,-5.559 -9.535,-10.093 -1.653,-4.534 -1.372,-9.558 0.799,-13.869 l 0.02,-0.039 c 3.95,-7.846 13.421,-11.105 21.367,-7.362 6.454,3.04 14.213,5.987 21.173,7.653 V 326.74 c -25.719,-7.501 -43.706,-16.848 -43.706,-43.07 0,-23.728 14.366,-43.537 43.706,-48.711 v -9.781 c 0,-6.904 5.596,-12.5 12.5,-12.5 6.904,0 12.5,5.596 12.5,12.5 v 9.526 c 9.152,1.259 18.407,4.132 27.216,7.889 4.251,1.813 7.546,5.325 9.091,9.681 1.545,4.356 1.207,9.169 -0.956,13.254 l -0.023,0.044 c -3.89,7.348 -12.801,10.386 -20.377,6.964 -4.67,-2.11 -10.007,-4.136 -14.951,-5.411 v 29.722 l 0.026,0.007 c 28.259,7.766 47.767,17.032 47.767,46.47 0,28.689 -19.582,43.717 -47.794,46.374 z"
     id="path6"
     style="fill:#ffffff" /></g>
<g
   id="g10">
</g>
<g
   id="g12">
</g>
<g
   id="g14">
</g>
<g
   id="g16">
</g>
<g
   id="g18">
</g>
<g
   id="g20">
</g>
<g
   id="g22">
</g>
<g
   id="g24">
</g>
<g
   id="g26">
</g>
<g
   id="g28">
</g>
<g
   id="g30">
</g>
<g
   id="g32">
</g>
<g
   id="g34">
</g>
<g
   id="g36">
</g>
<g
   id="g38">
</g>
</svg>
